<?xml version="1.0" encoding="UTF-8"?> <!-- Generator: Adobe Illustrator 16.0.0, SVG Export Plug-In . SVG Version: 6.00 Build 0) --> <svg xmlns="http://www.w3.org/2000/svg" xmlns:xlink="http://www.w3.org/1999/xlink" version="1.1" id="Layer_1" x="0px" y="0px" width="200px" height="50px" viewBox="0 0 200 50" xml:space="preserve"> <g> <path fill="#323232" d="M60.913,25.412v1.892H48.191v-1.479l9.569-11.852h-9.417v-1.892H60.63v1.479l-9.525,11.852H60.913z"></path> <path fill="#323232" d="M76.136,25.412v1.892H65.089V12.081h10.743v1.892h-8.569v4.676h7.633v1.848h-7.633v4.915H76.136z"></path> <path fill="#323232" d="M94.013,12.081v15.223h-1.783l-9.134-11.352v11.352h-2.174V12.081h1.783l9.134,11.352V12.081H94.013z"></path> <path fill="#323232" d="M102.863,13.973h-5.219v-1.892h12.592v1.892h-5.221v13.331h-2.152V13.973z"></path> <path fill="#323232" d="M124.045,27.304l-3.283-4.676c-0.406,0.029-0.726,0.043-0.957,0.043h-3.763v4.632h-2.175V12.081h5.938 c1.972,0,3.522,0.471,4.653,1.414s1.696,2.24,1.696,3.893c0,1.175-0.29,2.175-0.869,3.001c-0.58,0.826-1.407,1.428-2.479,1.805 l3.61,5.111H124.045z M122.893,19.931c0.725-0.594,1.087-1.442,1.087-2.544c0-1.102-0.362-1.946-1.087-2.533 c-0.726-0.587-1.776-0.881-3.153-0.881h-3.697v6.851h3.697C121.116,20.823,122.167,20.526,122.893,19.931z"></path> <path fill="#323232" d="M130.938,12.081h2.175v15.223h-2.175V12.081z"></path> <path fill="#323232" d="M148.511,27.304l-4.567-6.285l-4.502,6.285h-2.5l5.719-7.807l-5.371-7.416h2.479l4.262,5.85l4.22-5.85h2.37 l-5.372,7.351l5.764,7.873H148.511z"></path> <path fill="#323232" d="M154.339,12.081h2.175v13.331h8.242v1.892h-10.417V12.081z"></path> <path fill="#323232" d="M178.282,23.498h-8.09l-1.675,3.806h-2.239l6.894-15.223h2.153l6.915,15.223h-2.283L178.282,23.498z M177.521,21.758l-3.284-7.459l-3.283,7.459H177.521z"></path> <path fill="#323232" d="M198.094,20.747c0.507,0.645,0.761,1.46,0.761,2.446c0,1.319-0.496,2.334-1.489,3.045 c-0.993,0.71-2.439,1.065-4.339,1.065h-7.264V12.081h6.829c1.739,0,3.084,0.348,4.034,1.044c0.949,0.696,1.424,1.66,1.424,2.892 c0,0.798-0.185,1.486-0.554,2.066c-0.37,0.58-0.867,1.022-1.49,1.327C196.89,19.656,197.586,20.102,198.094,20.747z M187.938,13.842v4.871h4.458c1.116,0,1.976-0.207,2.577-0.62s0.902-1.019,0.902-1.816s-0.301-1.403-0.902-1.816 s-1.461-0.62-2.577-0.62H187.938z M195.724,24.933c0.623-0.406,0.935-1.044,0.935-1.914c0-1.696-1.239-2.544-3.719-2.544h-5.002 v5.067h5.002C194.172,25.542,195.1,25.339,195.724,24.933z"></path> </g> <g> <path fill="#B3B2B3" d="M49.3,34.56c0.634-0.13,1.542-0.201,2.406-0.201c1.339,0,2.204,0.245,2.809,0.792 c0.49,0.432,0.764,1.095,0.764,1.844c0,1.282-0.807,2.132-1.83,2.478v0.043c0.749,0.26,1.196,0.951,1.426,1.959 c0.316,1.354,0.547,2.29,0.749,2.665h-1.297c-0.158-0.273-0.374-1.109-0.648-2.319c-0.288-1.339-0.807-1.844-1.945-1.887h-1.181 v4.206H49.3V34.56z M50.554,38.982h1.282c1.339,0,2.189-0.735,2.189-1.844c0-1.254-0.908-1.801-2.233-1.815 c-0.604,0-1.037,0.058-1.238,0.115V38.982z"></path> <path fill="#B3B2B3" d="M58.673,40.883c0.029,1.715,1.124,2.42,2.391,2.42c0.907,0,1.455-0.158,1.93-0.359l0.216,0.907 c-0.447,0.202-1.21,0.433-2.319,0.433c-2.146,0-3.428-1.412-3.428-3.516c0-2.103,1.239-3.759,3.27-3.759 c2.275,0,2.881,2.002,2.881,3.284c0,0.259-0.029,0.461-0.043,0.59H58.673z M62.39,39.976c0.015-0.807-0.331-2.06-1.757-2.06 c-1.282,0-1.844,1.182-1.945,2.06H62.39z"></path> <path fill="#B3B2B3" d="M65.914,42.842c0.375,0.245,1.037,0.505,1.671,0.505c0.922,0,1.354-0.461,1.354-1.037 c0-0.605-0.36-0.937-1.297-1.282c-1.253-0.446-1.844-1.138-1.844-1.974c0-1.123,0.908-2.045,2.406-2.045 c0.706,0,1.325,0.201,1.714,0.432l-0.317,0.922c-0.273-0.173-0.777-0.403-1.426-0.403c-0.749,0-1.167,0.433-1.167,0.951 c0,0.576,0.418,0.835,1.325,1.181c1.21,0.461,1.83,1.066,1.83,2.104c0,1.224-0.951,2.089-2.607,2.089 c-0.764,0-1.47-0.188-1.959-0.476L65.914,42.842z"></path> <path fill="#B3B2B3" d="M73.401,40.883c0.029,1.715,1.124,2.42,2.391,2.42c0.908,0,1.455-0.158,1.93-0.359l0.216,0.907 c-0.446,0.202-1.21,0.433-2.319,0.433c-2.146,0-3.428-1.412-3.428-3.516c0-2.103,1.239-3.759,3.27-3.759 c2.276,0,2.881,2.002,2.881,3.284c0,0.259-0.028,0.461-0.043,0.59H73.401z M77.118,39.976c0.014-0.807-0.332-2.06-1.757-2.06 c-1.282,0-1.844,1.182-1.944,2.06H77.118z"></path> <path fill="#B3B2B3" d="M84.676,44.139l-0.101-0.879h-0.043c-0.389,0.548-1.138,1.037-2.132,1.037 c-1.412,0-2.132-0.994-2.132-2.002c0-1.686,1.498-2.607,4.191-2.593v-0.144c0-0.576-0.158-1.613-1.584-1.613 c-0.648,0-1.325,0.201-1.815,0.518l-0.288-0.835c0.576-0.374,1.412-0.619,2.29-0.619c2.132,0,2.65,1.454,2.65,2.852v2.607 c0,0.604,0.029,1.195,0.115,1.671H84.676z M84.489,40.581c-1.383-0.029-2.953,0.216-2.953,1.569c0,0.821,0.547,1.211,1.195,1.211 c0.907,0,1.483-0.576,1.686-1.167c0.043-0.13,0.072-0.274,0.072-0.403V40.581z"></path> <path fill="#B3B2B3" d="M88.662,39.342c0-0.82-0.014-1.526-0.058-2.175h1.109l0.043,1.368h0.058 c0.317-0.936,1.081-1.526,1.931-1.526c0.144,0,0.245,0.015,0.36,0.043v1.195c-0.129-0.028-0.259-0.043-0.432-0.043 c-0.893,0-1.527,0.677-1.7,1.628c-0.029,0.173-0.058,0.374-0.058,0.59v3.717h-1.253V39.342z"></path> <path fill="#B3B2B3" d="M99.103,43.879c-0.331,0.174-1.066,0.404-2.002,0.404c-2.104,0-3.472-1.427-3.472-3.559 c0-2.146,1.469-3.701,3.745-3.701c0.749,0,1.412,0.187,1.757,0.359l-0.288,0.979c-0.302-0.173-0.778-0.331-1.469-0.331 c-1.599,0-2.463,1.182-2.463,2.636c0,1.613,1.037,2.607,2.42,2.607c0.72,0,1.195-0.188,1.556-0.346L99.103,43.879z"></path> <path fill="#B3B2B3" d="M101.49,33.912h1.268v4.35h0.028c0.202-0.36,0.519-0.677,0.907-0.893c0.375-0.217,0.821-0.36,1.297-0.36 c0.937,0,2.435,0.576,2.435,2.981v4.148h-1.268v-4.004c0-1.124-0.418-2.074-1.613-2.074c-0.821,0-1.47,0.576-1.7,1.268 c-0.072,0.172-0.086,0.359-0.086,0.604v4.206h-1.268V33.912z"></path> <path fill="#B3B2B3" d="M120.469,44.139c-0.274-0.273-0.533-0.547-0.908-0.951c-0.835,0.778-1.771,1.109-2.838,1.109 c-1.887,0-2.981-1.268-2.981-2.723c0-1.324,0.792-2.232,1.901-2.837v-0.044c-0.504-0.633-0.807-1.339-0.807-2.03 c0-1.182,0.85-2.392,2.463-2.392c1.211,0,2.146,0.807,2.146,2.061c0,1.022-0.59,1.829-2.132,2.592v0.044 c0.821,0.95,1.743,2.017,2.362,2.708c0.447-0.678,0.749-1.613,0.937-2.838h1.152c-0.259,1.527-0.677,2.736-1.397,3.587 c0.519,0.547,1.023,1.095,1.6,1.714H120.469z M118.941,42.468c-0.576-0.634-1.656-1.815-2.736-3.054 c-0.52,0.331-1.254,0.951-1.254,1.974c0,1.108,0.821,1.959,1.988,1.959C117.774,43.347,118.48,42.972,118.941,42.468z M115.988,36.548c0,0.691,0.317,1.224,0.734,1.743c0.98-0.563,1.613-1.081,1.613-1.902c0-0.59-0.331-1.253-1.123-1.253 C116.406,35.136,115.988,35.799,115.988,36.548z"></path> <path fill="#B3B2B3" d="M129.22,34.43v9.709h-1.253V34.43H129.22z"></path> <path fill="#B3B2B3" d="M132.415,39.054c0-0.72-0.015-1.311-0.058-1.887h1.123l0.072,1.152h0.029 c0.346-0.663,1.152-1.311,2.305-1.311c0.965,0,2.463,0.576,2.463,2.967v4.163h-1.268V40.12c0-1.124-0.418-2.06-1.613-2.06 c-0.836,0-1.484,0.59-1.7,1.296c-0.058,0.158-0.086,0.374-0.086,0.591v4.191h-1.268V39.054z"></path> <path fill="#B3B2B3" d="M141.313,39.054c0-0.72-0.015-1.311-0.058-1.887h1.123l0.072,1.152h0.028 c0.346-0.663,1.152-1.311,2.305-1.311c0.966,0,2.464,0.576,2.464,2.967v4.163h-1.268V40.12c0-1.124-0.418-2.06-1.613-2.06 c-0.836,0-1.483,0.59-1.7,1.296c-0.058,0.158-0.086,0.374-0.086,0.591v4.191h-1.268V39.054z"></path> <path fill="#B3B2B3" d="M156.519,40.596c0,2.578-1.786,3.701-3.472,3.701c-1.887,0-3.342-1.383-3.342-3.586 c0-2.334,1.527-3.702,3.457-3.702C155.165,37.009,156.519,38.463,156.519,40.596z M150.987,40.667c0,1.527,0.879,2.68,2.118,2.68 c1.209,0,2.117-1.138,2.117-2.708c0-1.182-0.591-2.68-2.089-2.68S150.987,39.342,150.987,40.667z"></path> <path fill="#B3B2B3" d="M159.41,37.167l1.369,3.918c0.23,0.634,0.417,1.21,0.562,1.786h0.043c0.158-0.576,0.36-1.152,0.591-1.786 l1.354-3.918h1.325l-2.736,6.972h-1.21l-2.65-6.972H159.41z"></path> <path fill="#B3B2B3" d="M170.556,44.139l-0.101-0.879h-0.044c-0.389,0.548-1.138,1.037-2.132,1.037 c-1.411,0-2.132-0.994-2.132-2.002c0-1.686,1.498-2.607,4.192-2.593v-0.144c0-0.576-0.159-1.613-1.585-1.613 c-0.648,0-1.325,0.201-1.815,0.518l-0.287-0.835c0.576-0.374,1.411-0.619,2.29-0.619c2.132,0,2.65,1.454,2.65,2.852v2.607 c0,0.604,0.028,1.195,0.115,1.671H170.556z M170.368,40.581c-1.383-0.029-2.953,0.216-2.953,1.569c0,0.821,0.548,1.211,1.196,1.211 c0.907,0,1.483-0.576,1.685-1.167c0.044-0.13,0.072-0.274,0.072-0.403V40.581z"></path> <path fill="#B3B2B3" d="M176.011,35.165v2.002h1.815v0.965h-1.815v3.76c0,0.864,0.245,1.354,0.951,1.354 c0.331,0,0.576-0.044,0.734-0.087l0.058,0.95c-0.245,0.102-0.634,0.174-1.123,0.174c-0.591,0-1.066-0.188-1.369-0.533 c-0.359-0.375-0.489-0.994-0.489-1.815v-3.803h-1.081v-0.965h1.081v-1.671L176.011,35.165z"></path> <path fill="#B3B2B3" d="M181.567,35.208c0.015,0.433-0.302,0.778-0.807,0.778c-0.446,0-0.763-0.346-0.763-0.778 c0-0.446,0.331-0.792,0.792-0.792C181.266,34.416,181.567,34.762,181.567,35.208z M180.156,44.139v-6.972h1.268v6.972H180.156z"></path> <path fill="#B3B2B3" d="M190.741,40.596c0,2.578-1.786,3.701-3.472,3.701c-1.887,0-3.342-1.383-3.342-3.586 c0-2.334,1.527-3.702,3.457-3.702C189.388,37.009,190.741,38.463,190.741,40.596z M185.21,40.667c0,1.527,0.879,2.68,2.118,2.68 c1.209,0,2.117-1.138,2.117-2.708c0-1.182-0.591-2.68-2.089-2.68S185.21,39.342,185.21,40.667z"></path> <path fill="#B3B2B3" d="M193.244,39.054c0-0.72-0.015-1.311-0.058-1.887h1.123l0.072,1.152h0.028 c0.346-0.663,1.152-1.311,2.305-1.311c0.966,0,2.464,0.576,2.464,2.967v4.163h-1.268V40.12c0-1.124-0.418-2.06-1.613-2.06 c-0.836,0-1.483,0.59-1.7,1.296c-0.058,0.158-0.086,0.374-0.086,0.591v4.191h-1.268V39.054z"></path> </g> <path fill="#E94365" d="M25.976,11.163c-0.838,1.475-1.475,2.607-2.12,3.733C18.633,24,13.38,33.087,8.22,42.228 c-0.753,1.332-1.244,1.792-3.1,1.777c-1.784,0.015-3.223-0.03-5.082-0.03c0.357-0.807,0.507-1.207,0.783-1.684 c5.643-9.795,11.324-19.567,16.909-29.394c0.767-1.348,0.571-1.762,2.148-1.762C21.537,11.135,23.926,11.163,25.976,11.163z"></path> <path fill="#E94365" d="M1.791,11.135c3.214,0,6.156,0,9.1,0c-4.277,1.408-7.29,4.271-9.247,8.366 c-0.13-0.083-0.26-0.166-0.391-0.25C1.428,16.615,1.603,13.978,1.791,11.135z"></path> <path fill="#E94365" d="M42.255,11.163c-0.838,1.475-1.476,2.607-2.122,3.733C34.913,24,29.659,33.087,24.5,42.228 c-0.753,1.332-1.479,1.792-3.101,1.777c-1.884,0.015-3.224-0.03-5.082-0.03c0.314-0.682,0.508-1.207,0.783-1.684 c5.643-9.795,11.325-19.567,16.909-29.394c0.766-1.348,1.627-1.759,3.121-1.759C39.22,11.125,40.206,11.163,42.255,11.163z"></path> <path fill="#E94365" d="M41.616,43.991c-3.214,0-6.157,0-9.1,0c4.277-1.408,7.291-4.271,9.247-8.366 c0.131,0.083,0.261,0.166,0.391,0.248C41.979,38.512,41.803,41.15,41.616,43.991z"></path> </svg> 